<svg aria-hidden="true" style="position: absolute; width: 0; height: 0; overflow: hidden;" version="1.1" xmlns="http://www.w3.org/2000/svg" xmlns:xlink="http://www.w3.org/1999/xlink">
<defs>
<symbol id="icon-bus" viewBox="0 0 32 32">
<path fill="#647b64" style="fill: var(--color1, #647b64)" d="M5.333 18v7.2c0 2.267 1.853 4.133 4.133 4.133h13.067c2.267 0 4.133-1.853 4.133-4.133v-7.2c0-0.373-0.293-0.667-0.667-0.667h-20c-0.373 0-0.667 0.293-0.667 0.667zM11.84 24.507c-0.307 0.32-0.733 0.493-1.173 0.493-0.107 0-0.213-0.013-0.32-0.027-0.107-0.027-0.213-0.053-0.32-0.107-0.108-0.046-0.2-0.095-0.287-0.151l0.007 0.004c-0.093-0.067-0.187-0.133-0.253-0.213-0.32-0.307-0.493-0.733-0.493-1.173s0.173-0.867 0.493-1.173c0.067-0.080 0.16-0.147 0.253-0.213 0.080-0.053 0.187-0.107 0.28-0.147 0.107-0.053 0.213-0.080 0.32-0.107 0.533-0.107 1.107 0.080 1.493 0.467 0.32 0.307 0.493 0.733 0.493 1.173s-0.173 0.867-0.493 1.173zM22.507 24.507c-0.067 0.080-0.16 0.147-0.253 0.213-0.080 0.053-0.187 0.107-0.28 0.147-0.107 0.053-0.213 0.080-0.307 0.107-0.12 0.013-0.227 0.027-0.333 0.027s-0.213-0.013-0.32-0.027c-0.107-0.027-0.213-0.053-0.32-0.107-0.108-0.046-0.2-0.095-0.287-0.151l0.007 0.004c-0.093-0.067-0.187-0.133-0.253-0.213-0.32-0.307-0.493-0.733-0.493-1.173s0.173-0.867 0.493-1.173c0.067-0.080 0.16-0.147 0.253-0.213 0.080-0.053 0.187-0.107 0.28-0.147 0.107-0.053 0.213-0.080 0.32-0.107 0.213-0.040 0.427-0.040 0.653 0 0.093 0.027 0.2 0.053 0.307 0.107 0.093 0.040 0.2 0.093 0.28 0.147 0.093 0.067 0.187 0.133 0.253 0.213 0.32 0.307 0.493 0.733 0.493 1.173s-0.173 0.867-0.493 1.173zM22.533 2.667h-13.067c-2.28 0-4.133 1.853-4.133 4.133v3.2c0 0.373 0.293 0.667 0.667 0.667h20c0.373 0 0.667-0.293 0.667-0.667v-3.2c0-2.28-1.853-4.133-4.133-4.133zM19.333 7.667h-6.667c-0.547 0-1-0.453-1-1s0.453-1 1-1h6.667c0.547 0 1 0.453 1 1s-0.453 1-1 1zM26 16h-20c-0.373 0-0.667-0.293-0.667-0.667v-2.667c0-0.373 0.293-0.667 0.667-0.667h20c0.373 0 0.667 0.293 0.667 0.667v2.667c0 0.373-0.293 0.667-0.667 0.667z"></path>
</symbol>
<symbol id="icon-driving" viewBox="0 0 32 32">
<path fill="#647b64" style="fill: var(--color1, #647b64)" d="M16 25c-0.547 0-1-0.453-1-1v-1.333c0-0.547 0.453-1 1-1s1 0.453 1 1v1.333c0 0.547-0.453 1-1 1zM16 30.333c-0.547 0-1-0.453-1-1v-1.333c0-0.547 0.453-1 1-1s1 0.453 1 1v1.333c0 0.547-0.453 1-1 1zM2.667 30.333c-0.080 0-0.16-0.013-0.24-0.027-0.533-0.133-0.867-0.68-0.733-1.213l1.333-5.333c0.111-0.441 0.505-0.762 0.973-0.762 0.554 0 1.002 0.449 1.002 1.003 0 0.085-0.011 0.168-0.031 0.247l0.002-0.007-1.333 5.333c-0.12 0.453-0.52 0.76-0.973 0.76zM29.004 30.004c-0.453 0-0.853-0.307-0.973-0.76l-1.333-5.333c-0.133-0.533 0.187-1.080 0.733-1.213 0.533-0.133 1.080 0.187 1.213 0.733l1.333 5.333c0.133 0.533-0.187 1.080-0.733 1.213-0.080 0.013-0.16 0.027-0.24 0.027zM25.52 7.067c0 0.4-0.333 0.72-0.72 0.72h-17.427c-0.4 0-0.72-0.333-0.72-0.72 0-0.4 0.333-0.72 0.72-0.72h0.987l0.373-1.747c0.347-1.707 1.067-3.267 3.947-3.267h6.787c2.88 0 3.613 1.56 3.96 3.253l0.373 1.747h0.987c0.4 0 0.733 0.333 0.733 0.733zM25.933 12.533c-0.147-1.6-0.573-3.293-3.68-3.293h-12.347c-3.107 0-3.52 1.707-3.68 3.293l-0.547 5.893c-0.067 0.733 0.173 1.467 0.68 2.027 0.52 0.56 1.24 0.88 2.013 0.88h1.813c1.573 0 1.867-0.893 2.067-1.493l0.2-0.587c0.227-0.667 0.28-0.827 1.147-0.827h4.96c0.867 0 0.893 0.093 1.147 0.827l0.2 0.587c0.187 0.6 0.493 1.493 2.053 1.493h1.813c0.76 0 1.493-0.32 2.013-0.88 0.507-0.547 0.747-1.293 0.68-2.027l-0.533-5.893zM13.173 14.56h-2.893c-0.4 0-0.72-0.333-0.72-0.72s0.333-0.72 0.72-0.72h2.907c0.4 0 0.72 0.333 0.72 0.72s-0.333 0.72-0.733 0.72zM21.88 14.56h-2.907c-0.4 0-0.72-0.333-0.72-0.72s0.333-0.72 0.72-0.72h2.907c0.4 0 0.72 0.333 0.72 0.72s-0.32 0.72-0.72 0.72z"></path>
</symbol>
<symbol id="icon-Icon-ball" viewBox="0 0 32 32">
<path fill="#647b64" style="fill: var(--color1, #647b64)" d="M32 16c-0.001 2.249-0.464 4.39-1.3 6.332l0.040-0.104c-1.257 2.907-3.246 5.296-5.739 7.004l-0.055 0.036c-0.781 0.533-1.675 1.026-2.615 1.432l-0.105 0.040c-1.838 0.795-3.979 1.258-6.228 1.258s-4.39-0.463-6.332-1.298l0.104 0.040c-1.044-0.447-1.937-0.94-2.774-1.51l0.056 0.036c-2.547-1.744-4.536-4.134-5.754-6.936l-0.040-0.104c-0.798-1.836-1.263-3.975-1.263-6.223 0-1.141 0.12-2.254 0.347-3.328l-0.019 0.104c0.454-2.172 1.292-4.092 2.445-5.779l-0.035 0.055c1.17-1.714 2.605-3.149 4.263-4.284l0.055-0.036c1.632-1.121 3.553-1.96 5.623-2.394l0.103-0.018c0.967-0.206 2.077-0.324 3.215-0.324 2.251 0 4.394 0.462 6.34 1.296l-0.105-0.040c2.908 1.254 5.297 3.246 7 5.743l0.036 0.055c1.119 1.632 1.956 3.553 2.39 5.623l0.018 0.103c0.22 1.050 0.328 2.134 0.328 3.22zM10.17 3.64c-3.824 1.837-6.62 5.291-7.524 9.452l-0.016 0.090c0.36 0.004 6.052 0.076 12.612-1.668-1.744-3.064-3.421-5.635-5.232-8.101l0.161 0.229zM16.374 13.62c-7.034 2.104-13.786 1.954-14.028 1.944-0.004 0.146-0.010 0.29-0.010 0.436 0 3.51 1.324 6.71 3.5 9.13-0.004-0.008 3.734-6.64 11.108-9.026 0.18-0.060 0.36-0.112 0.54-0.164-0.469-1.064-0.84-1.826-1.231-2.575l0.121 0.255zM25.024 5.746c-2.386-2.116-5.544-3.408-9.004-3.408-0.007 0-0.014 0-0.021 0h0.001c-0.001 0-0.002 0-0.003 0-1.142 0-2.251 0.139-3.312 0.402l0.094-0.020c0.204 0.276 2.77 3.68 5.108 7.97 5.156-1.932 7.1-4.894 7.136-4.944zM18.416 18.206l-0.092 0.028c-8.060 2.81-10.694 8.474-10.722 8.536 2.291 1.805 5.219 2.895 8.401 2.895 1.926 0 3.758-0.399 5.419-1.119l-0.088 0.034c-0.202-1.194-0.996-5.38-2.92-10.376zM23.636 27.332c3.069-2.090 5.222-5.33 5.843-9.087l0.011-0.079c-0.28-0.092-4.104-1.3-8.514-0.594 1.792 4.924 2.52 8.936 2.66 9.76zM18.94 12.726c0.319 0.618 0.723 1.503 1.097 2.404l0.105 0.286c4.694-0.592 9.32 0.402 9.516 0.444-0.027-3.257-1.195-6.237-3.124-8.563l0.018 0.022c-0.026 0.036-2.218 3.204-7.612 5.406z"></path>
</symbol>
<symbol id="icon-Icon-twitter" viewBox="0 0 32 32">
<path fill="#647b64" style="fill: var(--color1, #647b64)" d="M15.538 9.448l0.070 1.212-1.156-0.148c-4.212-0.572-7.886-2.498-11.006-5.734l-1.526-1.608-0.394 1.186c-0.832 2.646-0.3 5.44 1.434 7.316 0.924 1.040 0.716 1.188-0.88 0.57-0.554-0.2-1.040-0.346-1.086-0.272-0.16 0.172 0.394 2.42 0.832 3.312 0.6 1.236 1.828 2.446 3.168 3.164l1.134 0.568-1.34 0.024c-1.296 0-1.342 0.024-1.204 0.544 0.462 1.606 2.288 3.312 4.324 4.054l1.434 0.52-1.25 0.79c-1.766 1.096-3.897 1.769-6.18 1.828l-0.016 0c-1.040 0.024-1.896 0.124-1.896 0.198 0 0.248 2.82 1.632 4.462 2.174 4.926 1.608 10.776 0.916 15.168-1.828 3.12-1.952 6.244-5.834 7.7-9.59 0.786-2 1.572-5.66 1.572-7.414 0-1.138 0.070-1.286 1.364-2.646 0.764-0.79 1.48-1.656 1.62-1.902 0.23-0.47 0.208-0.47-0.972-0.050-1.966 0.74-2.244 0.642-1.272-0.47 0.716-0.79 1.572-2.224 1.572-2.644 0-0.074-0.346 0.050-0.74 0.272-0.416 0.248-1.34 0.618-2.034 0.84l-1.248 0.42-1.134-0.816c-0.624-0.444-1.502-0.94-1.966-1.086-1.18-0.346-2.98-0.298-4.046 0.1-2.67 1.056-4.524 3.615-4.524 6.607 0 0.179 0.007 0.355 0.020 0.531l-0.001-0.023z"></path>
</symbol>
<symbol id="icon-Icon-youtube" viewBox="0 0 32 32">
<path fill="#647b64" style="fill: var(--color1, #647b64)" d="M28.502 2.836c1.378 0.46 2.46 1.816 2.83 3.536 0.668 3.12 0.668 9.628 0.668 9.628s0 6.508-0.668 9.628c-0.368 1.72-1.452 3.076-2.83 3.536-2.496 0.836-12.502 0.836-12.502 0.836s-10.006 0-12.502-0.836c-1.378-0.46-2.46-1.816-2.83-3.536-0.668-3.12-0.668-9.628-0.668-9.628s0-6.508 0.668-9.628c0.368-1.72 1.452-3.076 2.83-3.536 2.496-0.836 12.502-0.836 12.502-0.836s10.006 0 12.502 0.836zM13 10.522v12.174l8-6.088-8-6.086z"></path>
</symbol>
<symbol id="icon-Icon-instagram" viewBox="0 0 32 32">
<path fill="#647b64" style="fill: var(--color1, #647b64)" d="M16 0c-4.342 0-4.888 0.020-6.594 0.096-1.706 0.080-2.868 0.348-3.886 0.744-1.109 0.424-2.055 1.052-2.833 1.845l-0.001 0.001c-0.793 0.78-1.421 1.725-1.828 2.78l-0.018 0.054c-0.396 1.016-0.666 2.18-0.744 3.88-0.076 1.71-0.096 2.254-0.096 6.6s0.020 4.888 0.096 6.596c0.080 1.702 0.348 2.866 0.744 3.882 0.41 1.054 0.956 1.946 1.846 2.836 0.888 0.89 1.78 1.438 2.832 1.846 1.020 0.396 2.18 0.666 3.884 0.744 1.708 0.076 2.252 0.096 6.598 0.096 4.344 0 4.888-0.020 6.596-0.096 1.702-0.080 2.866-0.348 3.884-0.744 1.108-0.424 2.053-1.052 2.831-1.845l0.001-0.001c0.89-0.89 1.438-1.782 1.848-2.834 0.394-1.020 0.664-2.18 0.742-3.884 0.078-1.706 0.098-2.25 0.098-6.596s-0.020-4.89-0.098-6.598c-0.080-1.702-0.35-2.866-0.742-3.882-0.425-1.109-1.054-2.054-1.847-2.833l-0.001-0.001c-0.779-0.794-1.723-1.422-2.779-1.828l-0.053-0.018c-1.020-0.396-2.184-0.666-3.888-0.744-1.704-0.076-2.248-0.096-6.596-0.096h0.006zM14.566 2.884h1.436c4.272 0 4.778 0.014 6.464 0.092 1.56 0.070 2.408 0.332 2.972 0.55 0.746 0.29 1.28 0.636 1.838 1.196 0.56 0.56 0.906 1.094 1.198 1.84 0.22 0.564 0.48 1.41 0.55 2.97 0.076 1.688 0.094 2.194 0.094 6.464s-0.016 4.776-0.094 6.464c-0.072 1.56-0.332 2.406-0.55 2.97-0.29 0.746-0.638 1.278-1.198 1.838s-1.092 0.906-1.84 1.196c-0.562 0.22-1.41 0.48-2.97 0.552-1.686 0.076-2.192 0.094-6.464 0.094-4.274 0-4.78-0.018-6.466-0.094-1.56-0.072-2.406-0.332-2.972-0.552-0.721-0.27-1.336-0.678-1.839-1.195l-0.001-0.001c-0.518-0.504-0.925-1.119-1.185-1.806l-0.011-0.034c-0.22-0.564-0.48-1.41-0.552-2.97-0.076-1.686-0.092-2.192-0.092-6.466 0-4.272 0.016-4.776 0.092-6.464 0.072-1.56 0.332-2.406 0.552-2.97 0.29-0.746 0.636-1.28 1.196-1.84s1.094-0.906 1.84-1.198c0.564-0.22 1.412-0.48 2.972-0.55 1.476-0.068 2.048-0.088 5.030-0.090v0.004zM24.542 5.54c-1.060 0-1.92 0.86-1.92 1.92s0.86 1.92 1.92 1.92v0c1.060 0 1.92-0.86 1.92-1.92s-0.86-1.92-1.92-1.92v0zM16.002 7.784c-0.038-0.001-0.083-0.001-0.128-0.001-4.539 0-8.218 3.679-8.218 8.218s3.679 8.218 8.218 8.218c0.045 0 0.090-0 0.135-0.001l-0.007 0c4.483-0.072 8.090-3.723 8.090-8.217s-3.607-8.145-8.083-8.217l-0.007-0zM16.002 10.666c2.946 0 5.334 2.388 5.334 5.334s-2.388 5.334-5.334 5.334v0c-2.946 0-5.334-2.388-5.334-5.334s2.388-5.334 5.334-5.334v0z"></path>
</symbol>
<symbol id="icon-iost-iost" viewBox="0 0 32 32">
<path fill="#fff" style="fill: var(--color2, #fff)" d="M26.014 8.56l-8.667-5.093c-0.387-0.232-0.854-0.37-1.353-0.37s-0.966 0.138-1.365 0.377l0.012-0.007-8.666 5.093c-0.814 0.48-1.32 1.36-1.32 2.293v10.28c0.003 0.973 0.527 1.824 1.308 2.287l0.012 0.007 8.666 5.093c0.387 0.232 0.854 0.37 1.353 0.37s0.966-0.137 1.365-0.377l-0.012 0.007 8.667-5.093c0.813-0.48 1.32-1.36 1.32-2.294v-10.28c0-0.933-0.507-1.813-1.32-2.293zM23.186 20.853l-6.666 4c-0.16 0.093-0.334 0.147-0.52 0.147s-0.36-0.053-0.52-0.147l-6.666-4c-0.48-0.28-0.627-0.893-0.347-1.373s0.893-0.627 1.373-0.347l6.146 3.694 4.72-2.84-2.48-1.493-0.866 0.866c-0.2 0.2-0.454 0.294-0.706 0.294-0.001 0-0.003 0-0.004 0-0.275 0-0.524-0.112-0.703-0.293l-0-0c-0.179-0.182-0.29-0.431-0.29-0.707s0.111-0.525 0.29-0.707l0.507-0.506-2.4-1.44-0.694 0.693c-0.2 0.2-0.454 0.294-0.707 0.294-0.001 0-0.002 0-0.004 0-0.275 0-0.524-0.112-0.703-0.293l-0-0c-0.179-0.182-0.29-0.431-0.29-0.707s0.111-0.525 0.29-0.707l0.347-0.347-3.48-2.093c-0.29-0.176-0.48-0.49-0.48-0.848 0-0.002 0-0.004 0-0.006v0c0-0.347 0.187-0.68 0.48-0.853l6.667-4c0.32-0.187 0.72-0.187 1.026 0l6.667 4c0.48 0.28 0.627 0.893 0.346 1.373-0.18 0.293-0.499 0.485-0.863 0.485-0.188 0-0.364-0.052-0.515-0.141l0.005 0.003-6.146-3.693-4.72 2.84 2.48 1.493 0.867-0.867c0.182-0.179 0.431-0.29 0.707-0.29s0.525 0.111 0.707 0.29l-0-0c0.179 0.182 0.29 0.431 0.29 0.707s-0.111 0.525-0.29 0.707l-0.506 0.506 2.4 1.44 0.693-0.693c0.182-0.179 0.431-0.29 0.707-0.29s0.525 0.111 0.707 0.29l-0-0c0.179 0.182 0.29 0.431 0.29 0.706s-0.111 0.525-0.29 0.707l0-0-0.346 0.347 3.48 2.093c0.306 0.186 0.48 0.507 0.48 0.854s-0.174 0.68-0.467 0.853z"></path>
</symbol>
<symbol id="icon-Logo" viewBox="0 0 140 32">
<path fill="#647b64" style="fill: var(--color1, #647b64)" d="M19.511 22.060c-0 0-0 0-0 0-0.673 0-1.25-0.409-1.496-0.993l-0.004-0.011-0.959-2.323c-0.25-0.594-0.827-1.004-1.5-1.004h-6.709c-0 0-0 0-0 0-0.684 0-1.269 0.423-1.508 1.022l-0.004 0.011-0.883 2.264c-0.242 0.61-0.828 1.033-1.512 1.033-0 0-0 0-0 0h-2.454c-1.17 0-1.956-1.201-1.487-2.273l8.231-18.814c0.257-0.577 0.826-0.973 1.487-0.973h3.267c0.647 0 1.233 0.384 1.489 0.978l8.148 18.815c0.465 1.071-0.321 2.268-1.489 2.268h-2.617zM13.752 9.864c-0.527-1.394-2.495-1.401-3.032-0.012l-0.541 1.401c-0.069 0.174-0.109 0.375-0.109 0.585 0 0.896 0.726 1.623 1.623 1.623 0 0 0 0 0.001 0h1.070c0.896 0 1.623-0.726 1.623-1.623 0-0.206-0.038-0.403-0.108-0.584l0.004 0.011-0.529-1.401z"></path>
<path fill="#647b64" style="fill: var(--color1, #647b64)" d="M46.046 23.089c0 1.329-0.238 2.545-0.715 3.645-0.469 1.105-1.141 2.040-1.976 2.799l-0.006 0.006c-0.867 0.769-1.917 1.371-3.152 1.807-1.213 0.437-2.567 0.655-4.062 0.655-1.516 0-2.881-0.218-4.094-0.654s-2.243-1.039-3.087-1.807c-0.824-0.77-1.484-1.704-1.93-2.752l-0.020-0.053c-0.455-1.101-0.683-2.316-0.683-3.645v-6.416c0-0.896-0.727-1.623-1.623-1.623v0h-5.159c-0 0-0 0-0 0-0.732 0-1.351-0.485-1.553-1.15l-0.003-0.011-0.728-2.456c-0.043-0.138-0.067-0.297-0.067-0.462 0-0.896 0.727-1.623 1.623-1.623 0 0 0 0 0.001 0h11.411c0.896 0 1.623 0.726 1.623 1.623 0 0 0 0 0 0.001v-0 11.682c0 0.602 0.076 1.173 0.227 1.713 0.173 0.54 0.423 1.029 0.748 1.465 0.347 0.415 0.791 0.748 1.332 0.997 0.563 0.249 1.235 0.374 2.015 0.374s1.441-0.125 1.982-0.373c0.563-0.249 1.019-0.582 1.365-0.997 0.331-0.413 0.588-0.902 0.74-1.436l0.007-0.029c0.152-0.54 0.228-1.111 0.228-1.713v-11.682c0-0 0-0 0-0.001 0-0.896 0.727-1.623 1.623-1.623h2.311c0.896 0 1.623 0.726 1.623 1.623 0 0 0 0 0 0.001v-0 12.118zM57.875 12.411c0.182-0.393 0.572-0.661 1.026-0.661 0.455 0 0.847 0.27 1.025 0.658l0.003 0.007 3.222 7.169c0.046 0.103 0.073 0.223 0.073 0.349 0 0.481-0.39 0.871-0.871 0.871-0.355 0-0.66-0.212-0.796-0.516l-0.002-0.006-0.215-0.507c-0.266-0.614-0.867-1.037-1.567-1.037h-1.851c-0 0-0 0-0 0-0.695 0-1.291 0.423-1.544 1.026l-0.004 0.011-0.211 0.512c-0.128 0.315-0.432 0.534-0.787 0.534-0.468 0-0.847-0.379-0.847-0.847 0-0.13 0.029-0.254 0.082-0.364l-0.002 0.005 3.268-7.204zM58.848 17.357c0 0 0 0 0 0 0.55 0 0.996-0.446 0.996-0.996 0-0.132-0.026-0.257-0.072-0.372l0.002 0.007c-0.331-0.837-1.515-0.841-1.851-0.005-0.045 0.11-0.072 0.237-0.072 0.371 0 0.55 0.446 0.996 0.996 0.996h0zM63.863 12.877c-0.025-0.078-0.040-0.168-0.040-0.261 0-0.482 0.39-0.872 0.872-0.872 0.402 0 0.74 0.272 0.841 0.642l0.001 0.006 1.649 6.002c0.002 0.008 0.009 0.013 0.017 0.013s0.015-0.006 0.017-0.013l0-0 1.82-5.817c0.154-0.483 0.599-0.826 1.124-0.826 0.527 0 0.973 0.347 1.123 0.824l0.002 0.008 1.783 5.811c0.002 0.007 0.008 0.012 0.016 0.012 0 0 0 0 0.001 0h-0c0 0 0 0 0 0 0.008 0 0.015-0.005 0.017-0.013l0-0 1.691-6.024c0.106-0.355 0.431-0.61 0.814-0.61 0.469 0 0.849 0.38 0.849 0.848 0 0.085-0.012 0.167-0.036 0.244l0.002-0.006-2.189 7.18c-0.144 0.459-0.565 0.786-1.063 0.786-0.49 0-0.906-0.317-1.054-0.758l-0.002-0.008-1.962-6.017c-0.002-0.008-0.009-0.013-0.017-0.013v0c-0.008 0-0.015 0.006-0.017 0.013l-0 0-1.962 6.018c-0.15 0.448-0.566 0.765-1.056 0.765-0.498 0-0.919-0.327-1.060-0.778l-0.002-0.008-2.18-7.149zM77.882 13.75c0-1.105 0.895-2 2-2v0h3.557c0.389 0 0.704 0.315 0.704 0.704s-0.315 0.704-0.704 0.704v0h-2.723c-0.636 0-1.152 0.516-1.152 1.152s0.516 1.152 1.152 1.152v0h2.508c0.006-0 0.014-0 0.021-0 0.375 0 0.679 0.304 0.679 0.679s-0.304 0.679-0.679 0.679c-0.007 0-0.015-0-0.022-0l0.001 0h-2.38c-0.707 0-1.28 0.573-1.28 1.28s0.573 1.28 1.28 1.28v0h2.822c0.009-0 0.020-0.001 0.031-0.001 0.396 0 0.717 0.321 0.717 0.717s-0.321 0.717-0.717 0.717c-0.011 0-0.022-0-0.032-0.001l0.002 0h-3.784c-1.105 0-2-0.895-2-2v0-5.063zM91.424 13.040c-0.305 0.32-0.837 0.296-1.233 0.102-0.015-0.008-0.049-0.024-0.083-0.040l-0.020-0.008c-0.284-0.143-0.619-0.228-0.974-0.23h-0.001c-0.209 0-0.411 0.028-0.604 0.080l0.016-0.004c-0.202 0.043-0.381 0.119-0.54 0.221l0.006-0.004c-0.163 0.097-0.297 0.227-0.398 0.38l-0.003 0.005c-0.098 0.153-0.147 0.341-0.147 0.563 0 0.205 0.045 0.38 0.133 0.525s0.209 0.269 0.361 0.371c0.16 0.103 0.351 0.192 0.574 0.269s0.467 0.153 0.734 0.23c0.303 0.093 0.614 0.2 0.935 0.32 0.329 0.12 0.627 0.277 0.894 0.473 0.276 0.197 0.499 0.444 0.668 0.743 0.178 0.299 0.267 0.67 0.267 1.113 0 0.487-0.093 0.913-0.28 1.28-0.186 0.358-0.438 0.657-0.742 0.892l-0.006 0.005c-0.311 0.236-0.676 0.421-1.072 0.532l-0.023 0.005c-0.389 0.114-0.836 0.179-1.298 0.179-0.008 0-0.016-0-0.024-0h0.001c-0.647-0-1.266-0.117-1.838-0.332l0.036 0.012c-0.333-0.125-0.622-0.28-0.885-0.468l0.012 0.008c-0.346-0.247-0.313-0.741 0.003-1.025 0.339-0.303 0.865-0.239 1.25 0.003 0.095 0.059 0.195 0.113 0.301 0.163 0.391 0.179 0.774 0.269 1.148 0.269 0.196 0 0.396-0.021 0.601-0.064 0.205-0.051 0.387-0.132 0.547-0.243 0.169-0.111 0.303-0.247 0.401-0.409 0.107-0.171 0.16-0.38 0.16-0.627 0-0.24-0.058-0.436-0.173-0.589-0.124-0.168-0.28-0.306-0.46-0.406l-0.007-0.004c-0.199-0.12-0.429-0.225-0.671-0.301l-0.023-0.006-0.841-0.269c-0.35-0.106-0.634-0.21-0.91-0.329l0.056 0.021c-0.297-0.125-0.552-0.284-0.779-0.477l0.004 0.004c-0.223-0.199-0.406-0.437-0.541-0.704l-0.006-0.014c-0.142-0.29-0.213-0.649-0.213-1.075 0-0.46 0.098-0.857 0.294-1.19 0.205-0.333 0.467-0.606 0.787-0.819 0.317-0.215 0.687-0.382 1.084-0.482l0.024-0.005c0.38-0.106 0.817-0.166 1.268-0.167h0c0.522 0.003 1.022 0.092 1.488 0.254l-0.032-0.010c0.262 0.086 0.487 0.185 0.7 0.305l-0.019-0.010c0.36 0.2 0.379 0.683 0.095 0.981zM93.241 16.256c0-0.725 0.125-1.378 0.373-1.959 0.255-0.587 0.612-1.085 1.052-1.495l0.003-0.002c0.45-0.403 0.983-0.725 1.569-0.936l0.033-0.011c0.623-0.223 1.299-0.333 2.029-0.333 0.739 0 1.419 0.111 2.042 0.333 0.624 0.219 1.162 0.541 1.62 0.951l-0.005-0.004c0.449 0.408 0.806 0.907 1.044 1.47l0.010 0.027c0.258 0.58 0.387 1.233 0.387 1.959 0 0.708-0.129 1.357-0.387 1.945-0.255 0.592-0.612 1.094-1.052 1.509l-0.002 0.002c-0.454 0.415-0.991 0.749-1.581 0.974l-0.034 0.011c-0.623 0.231-1.303 0.346-2.042 0.346-0.73 0-1.407-0.115-2.029-0.346-0.619-0.239-1.151-0.573-1.606-0.989l0.004 0.003c-0.437-0.42-0.792-0.922-1.043-1.481l-0.012-0.030c-0.249-0.589-0.373-1.237-0.373-1.945zM95.070 16.256c0 0.487 0.075 0.934 0.227 1.344 0.162 0.407 0.388 0.755 0.669 1.051l-0.001-0.001c0.293 0.299 0.636 0.533 1.027 0.704 0.38 0.154 0.82 0.244 1.282 0.244 0.014 0 0.028-0 0.043-0l-0.002 0c0.481 0 0.921-0.081 1.321-0.243 0.402-0.17 0.744-0.408 1.027-0.703l0.001-0.001c0.293-0.299 0.516-0.649 0.667-1.049 0.16-0.409 0.24-0.858 0.24-1.344 0-0.469-0.080-0.905-0.24-1.306-0.154-0.408-0.376-0.757-0.655-1.051l0.001 0.001c-0.284-0.296-0.626-0.534-1.008-0.696l-0.020-0.008c-0.401-0.171-0.845-0.256-1.335-0.256s-0.935 0.085-1.335 0.256c-0.396 0.173-0.733 0.41-1.013 0.703l-0.001 0.001c-0.28 0.294-0.506 0.643-0.66 1.028l-0.008 0.022c-0.144 0.377-0.227 0.814-0.227 1.27 0 0.012 0 0.025 0 0.037v-0.002zM105.023 13.307c0.001-0.859 0.698-1.556 1.557-1.556 0.66 0 1.224 0.411 1.451 0.991l0.004 0.011 2.067 5.417c0.004 0.011 0.014 0.019 0.026 0.019 0 0 0 0 0 0v0c0 0 0 0 0 0 0.012 0 0.023-0.008 0.027-0.018l0-0 2.041-5.409c0.23-0.594 0.798-1.008 1.461-1.008 0.862 0 1.561 0.698 1.563 1.559v6.666c0 0.461-0.374 0.834-0.834 0.834s-0.834-0.374-0.834-0.834v-6.433c0-0 0-0 0-0.001 0-0.008-0.007-0.015-0.015-0.015 0 0 0 0 0 0v0c-0 0-0 0-0 0-0.007 0-0.013 0.004-0.015 0.010l-0 0-2.651 6.728c-0.129 0.322-0.439 0.546-0.801 0.546-0.363 0-0.674-0.225-0.8-0.544l-0.002-0.006-2.613-6.725c-0.003-0.006-0.008-0.010-0.015-0.010-0.009 0-0.016 0.007-0.016 0.016 0 0 0 0 0 0v0 6.466c0 0.442-0.359 0.801-0.801 0.801s-0.801-0.359-0.801-0.801v0-6.705zM117.303 13.75c0-1.105 0.895-2 2-2v0h3.557c0.389 0 0.704 0.315 0.704 0.704s-0.315 0.704-0.704 0.704v0h-2.723c-0.636 0-1.152 0.516-1.152 1.152s0.516 1.152 1.152 1.152v0h2.509c0.375 0 0.678 0.304 0.678 0.678s-0.304 0.678-0.678 0.678v0h-2.381c-0.707 0-1.28 0.573-1.28 1.28s0.573 1.28 1.28 1.28v0h2.823c0.396 0 0.717 0.321 0.717 0.717s-0.321 0.717-0.717 0.717h-3.785c-1.105 0-2-0.895-2-2v0-5.063zM136.317 17.485c0 0.547-0.098 1.041-0.293 1.485-0.196 0.437-0.466 0.807-0.799 1.111l-0.003 0.002c-0.338 0.308-0.739 0.547-1.201 0.717-0.437 0.154-0.941 0.244-1.466 0.244-0.015 0-0.030-0-0.045-0l0.002 0c-0.013 0-0.028 0-0.043 0-0.525 0-1.028-0.089-1.497-0.253l0.032 0.010c-0.468-0.171-0.872-0.415-1.219-0.72l0.004 0.004c-0.335-0.306-0.605-0.677-0.793-1.092l-0.008-0.021c-0.187-0.444-0.28-0.939-0.28-1.485v-4.893c0.013-0.454 0.385-0.818 0.841-0.818s0.828 0.363 0.841 0.816l0 0.001v4.829c0 0.265 0.035 0.529 0.107 0.793 0.071 0.256 0.187 0.487 0.347 0.691 0.169 0.205 0.387 0.371 0.655 0.5 0.275 0.127 0.614 0.191 1.014 0.191s0.735-0.064 1.001-0.192c0.276-0.128 0.494-0.294 0.654-0.499 0.162-0.194 0.286-0.425 0.357-0.678l0.003-0.013c0.071-0.264 0.107-0.529 0.107-0.793v-4.829c0.013-0.454 0.385-0.818 0.841-0.818s0.828 0.363 0.841 0.816l0 0.001v4.893zM138.318 12.591c0.013-0.454 0.385-0.818 0.841-0.818s0.828 0.363 0.841 0.816l0 0.001v7.38c-0.013 0.454-0.385 0.818-0.841 0.818s-0.828-0.363-0.841-0.816l-0-0.001v-7.38z"></path>
</symbol>
<symbol id="icon-python" viewBox="0 0 32 32">
<path fill="#647b64" style="fill: var(--color1, #647b64)" d="M20.026 2.973c-1.21-0.197-2.605-0.31-4.027-0.31s-2.816 0.113-4.177 0.33l0.15-0.020c-1.093 0.173-1.893 1.107-1.893 2.2v4.907h-4.907c-1.093 0-2.026 0.8-2.2 1.893-0.197 1.21-0.31 2.605-0.31 4.027s0.113 2.816 0.33 4.176l-0.020-0.15c0.173 1.093 1.107 1.893 2.2 1.893h2.24c0.002 0 0.005 0 0.007 0 0.364 0 0.66-0.296 0.66-0.66 0-0.002 0-0.005-0-0.007v0-2.293c0-2.733 2.226-4.96 4.96-4.96h5.92c0.533 0 0.96-0.427 0.96-0.96v-4.293c-0-0.002-0-0.004-0-0.007 0-0.364 0.296-0.66 0.66-0.66 0.002 0 0.005 0 0.007 0h0.666c0.002 0 0.005 0 0.007 0 0.364 0 0.66-0.295 0.66-0.66 0-0.002 0-0.005-0-0.007v0-2.24c0-1.093-0.8-2.026-1.893-2.2zM13.773 7.44c-0.546 0-1.066-0.52-1.066-1.067 0-0.56 0.52-1.080 1.066-1.080 0.267 0 0.56 0.12 0.747 0.307 0.2 0.186 0.333 0.493 0.333 0.773 0 0.547-0.52 1.067-1.080 1.067z"></path>
<path fill="#647b64" style="fill: var(--color1, #647b64)" d="M29.026 11.973c-0.174-1.094-1.107-1.893-2.2-1.893h-4.24c-0.002-0-0.004-0-0.007-0-0.364 0-0.66 0.296-0.66 0.66 0 0.002 0 0.005 0 0.007v-0 2.293c0 1.627-1.32 2.96-2.96 2.96h-5.92c-1.64 0-2.96 1.32-2.96 2.96v7.867c0 1.093 0.8 2.026 1.893 2.2 1.21 0.197 2.605 0.31 4.027 0.31s2.816-0.113 4.177-0.33l-0.15 0.020c1.093-0.174 1.893-1.107 1.893-2.2v-4.907h4.907c1.093 0 2.026-0.8 2.2-1.893 0.197-1.21 0.31-2.605 0.31-4.027s-0.113-2.816-0.33-4.176l0.020 0.15zM18.227 26.706c-0.547 0-1.080-0.52-1.080-1.080s0.52-1.080 1.080-1.080c0.253 0 0.56 0.12 0.747 0.294 0.2 0.186 0.334 0.506 0.334 0.773-0.014 0.573-0.534 1.093-1.080 1.093z"></path>
</symbol>
<symbol id="icon-ship" viewBox="0 0 32 32">
<path fill="#647b64" style="fill: var(--color1, #647b64)" d="M28.84 19.547l-0.547 2.48c-0.947 4.267-4.293 7.307-9.12 7.307h-6.347c-4.827 0-8.173-3.040-9.12-7.307l-0.547-2.48c-0.267-1.213 0.453-2.587 1.613-3.053l9.24-3.707c0.64-0.253 1.32-0.387 1.987-0.387s1.347 0.133 1.987 0.387l9.24 3.707c1.16 0.467 1.88 1.84 1.613 3.053z"></path>
<path fill="#647b64" style="fill: var(--color1, #647b64)" d="M25.333 10.667v1.92c0 0.467-0.48 0.8-0.92 0.613l-5.693-2.28c-0.803-0.322-1.735-0.508-2.71-0.508-0.988 0-1.931 0.192-2.794 0.54l0.050-0.018-5.68 2.28c-0.075 0.032-0.163 0.051-0.255 0.051-0.367 0-0.665-0.297-0.665-0.664v-1.933c0-2.2 1.8-4 4-4h10.667c2.2 0 4 1.8 4 4zM19.333 6.667h-6.667v-2.667c0-0.733 0.6-1.333 1.333-1.333h4c0.733 0 1.333 0.6 1.333 1.333v2.667z"></path>
</symbol>
<symbol id="icon-smart-car" viewBox="0 0 32 32">
<path fill="#fff" style="fill: var(--color2, #fff)" d="M24.947 12.653c-0.133 0-0.267-0.027-0.4-0.080-0.357-0.162-0.6-0.515-0.6-0.925 0-0.143 0.029-0.278 0.083-0.401l-0.003 0.007c0.253-0.573 0.107-1.413-0.36-2.107-0.467-0.707-1.173-1.187-1.813-1.147-0.587 0-1-0.44-1.013-0.987 0-0.56 0.44-1 0.987-1.013 1.373-0.027 2.667 0.76 3.507 2.027 0.853 1.28 1.053 2.813 0.533 4.013-0.16 0.387-0.533 0.613-0.92 0.613z"></path>
<path fill="#fff" style="fill: var(--color2, #fff)" d="M29.093 13.973c-0.093 0-0.173-0.013-0.267-0.040-0.424-0.119-0.73-0.503-0.73-0.958 0-0.096 0.014-0.188 0.039-0.276l-0.002 0.007c0.507-1.813 0.080-3.973-1.133-5.787s-3.053-3.027-4.933-3.253c-0.495-0.061-0.874-0.479-0.874-0.985 0-0.043 0.003-0.085 0.008-0.127l-0 0.005c0.067-0.547 0.573-0.947 1.107-0.867 2.44 0.293 4.813 1.84 6.347 4.133s2.053 5.067 1.4 7.44c-0.12 0.413-0.52 0.707-0.96 0.707zM22.827 15.707c0 0.4-0.333 0.733-0.733 0.733h-17.52c-0.4 0-0.733-0.333-0.733-0.733s0.333-0.733 0.733-0.733h0.987l0.373-1.76c0.347-1.707 1.080-3.267 3.987-3.267h6.84c2.907 0 3.627 1.573 3.987 3.267l0.373 1.76h0.987c0.387 0 0.72 0.333 0.72 0.733zM23.24 21.213c-0.147-1.6-0.573-3.32-3.693-3.32h-12.427c-3.12 0-3.547 1.72-3.693 3.32l-0.547 5.933c-0.067 0.733 0.173 1.48 0.68 2.040 0.52 0.56 1.24 0.88 2.027 0.88h1.827c1.573 0 1.88-0.907 2.080-1.493l0.2-0.587c0.227-0.667 0.28-0.84 1.16-0.84h4.987c0.88 0 0.907 0.093 1.16 0.84l0.2 0.587c0.2 0.6 0.493 1.493 2.080 1.493h1.827c0.773 0 1.507-0.32 2.027-0.88 0.507-0.56 0.747-1.293 0.68-2.040l-0.573-5.933zM10.413 23.24h-2.92c-0.4 0-0.733-0.333-0.733-0.733s0.333-0.733 0.733-0.733h2.92c0.4 0 0.733 0.333 0.733 0.733s-0.333 0.733-0.733 0.733zM19.173 23.24h-2.92c-0.4 0-0.733-0.333-0.733-0.733s0.333-0.733 0.733-0.733h2.92c0.4 0 0.733 0.333 0.733 0.733s-0.333 0.733-0.733 0.733z"></path>
</symbol>
<symbol id="icon-stacks-stx" viewBox="0 0 32 32">
<path fill="#647b64" style="fill: var(--color1, #647b64)" d="M16 2.667c-7.36 0-13.334 5.974-13.334 13.334s5.973 13.333 13.334 13.333c7.36 0 13.333-5.973 13.333-13.333s-5.973-13.334-13.333-13.334zM22 19h-4.066l2.653 3.76c0.32 0.453 0.213 1.080-0.24 1.387-0.173 0.12-0.373 0.186-0.573 0.186-0.004 0-0.008 0-0.012 0-0.332 0-0.625-0.168-0.799-0.423l-0.002-0.003-3.067-4.346-3.066 4.346c-0.182 0.258-0.478 0.425-0.813 0.427h-0c-0.2 0-0.4-0.053-0.573-0.186-0.454-0.32-0.56-0.947-0.24-1.387l2.653-3.76h-3.826c-0.546 0-1-0.453-1-1s0.454-1 1-1h12c0.547 0 1 0.453 1 1s-0.48 1-1.026 1zM22 15h-12c-0.546 0-1-0.454-1-1s0.454-1 1-1h3.826l-2.653-3.76c-0.32-0.454-0.213-1.080 0.24-1.387 0.453-0.32 1.080-0.213 1.386 0.24l3.066 4.347 3.067-4.347c0.32-0.453 0.947-0.56 1.387-0.24 0.453 0.32 0.56 0.947 0.24 1.387l-2.654 3.76h4.067c0.547 0 1 0.453 1 1s-0.427 1-0.973 1z"></path>
</symbol>
</defs>
</svg>
